<svg viewBox="0 0 1200 600" xmlns="http://www.w3.org/2000/svg">
  <defs>
    <linearGradient id="grad1" x1="0%" y1="0%" x2="0%" y2="100%">
      <stop offset="0%" style="stop-color:rgb(76, 81, 191, 0.5);stop-opacity:1" />
      <stop offset="100%" style="stop-color:rgb(76, 81, 191, 0);stop-opacity:1" />
    </linearGradient>
  </defs>
  <rect width="1200" height="600" fill="#ffffff"/>
  <g transform="translate(50, 50)">
    <path d="M0,450 C100,350 200,400 300,300 C400,200 500,250 600,150 C700,50 800,100 900,200 C1000,300 1050,250 1100,280" stroke="#4c51bf" stroke-width="6" fill="none" stroke-linecap="round" stroke-linejoin="round"/>
    <path d="M0,450 C100,350 200,400 300,300 C400,200 500,250 600,150 C700,50 800,100 900,200 C1000,300 1050,250 1100,280 L1100,500 L0,500 Z" fill="url(#grad1)" />
    
    <rect x="100" y="380" width="60" height="120" fill="#a3a3a3" rx="8"></rect>
    <rect x="250" y="300" width="60" height="200" fill="#d4d4d4" rx="8"></rect>
    <rect x="400" y="350" width="60" height="150" fill="#a3a3a3" rx="8"></rect>
    <rect x="550" y="250" width="60" height="250" fill="#d4d4d4" rx="8"></rect>
    <rect x="700" y="320" width="60" height="180" fill="#a3a3a3" rx="8"></rect>
    <rect x="850" y="280" width="60" height="220" fill="#d4d4d4" rx="8"></rect>
    
    <line x1="0" y1="500" x2="1100" y2="500" stroke="#e5e7eb" stroke-width="2"/>
    <line x1="0" y1="0" x2="0" y2="500" stroke="#e5e7eb" stroke-width="2"/>
  </g>
</svg> 